<svg aria-hidden="true" style="position: absolute; width: 0; height: 0; overflow: hidden;" version="1.1" xmlns="http://www.w3.org/2000/svg" xmlns:xlink="http://www.w3.org/1999/xlink">
<defs>
<symbol id="icon-computer-desktop-1" viewBox="0 0 32 32">
<path d="M11.2 27.2h-8c-1.767 0-3.2-1.433-3.2-3.2v-20.8c0-1.76 1.44-3.2 3.2-3.2h25.6c1.767 0 3.2 1.433 3.2 3.2v20.8c0 1.767-1.433 3.2-3.2 3.2h-8l6.4 3.2v1.6h-22.4v-1.6l6.4-3.2zM3.2 3.2v17.6h25.6v-17.6h-25.6z"></path>
</symbol>
<symbol id="icon-conversation-1" viewBox="0 0 32 32">
<path d="M27.2 17.6v4.8l-4.8-4.8h-9.6c-1.767 0-3.2-1.433-3.2-3.2v-11.2c0-1.76 1.44-3.2 3.2-3.2h16c1.767 0 3.2 1.433 3.2 3.2v11.2c0 1.767-1.433 3.2-3.2 3.2h-1.6zM22.4 20.8v3.2c0 1.767-1.433 3.2-3.2 3.2h-9.6l-4.8 4.8v-4.8h-1.6c-1.767 0-3.2-1.433-3.2-3.2v-11.2c0-1.76 1.44-3.2 3.2-3.2h3.2v4.8c0 3.535 2.865 6.4 6.4 6.4h9.6z"></path>
</symbol>
<symbol id="icon-film-1" viewBox="0 0 32 32">
<path d="M0 6.4c0-1.76 1.44-3.2 3.2-3.2h25.6c1.767 0 3.2 1.433 3.2 3.2v19.2c0 1.767-1.433 3.2-3.2 3.2h-25.6c-1.767 0-3.2-1.433-3.2-3.2v-19.2zM9.6 6.4v19.2h12.8v-19.2h-12.8zM3.2 8v3.2h3.2v-3.2h-3.2zM3.2 14.4v3.2h3.2v-3.2h-3.2zM3.2 20.8v3.2h3.2v-3.2h-3.2zM25.6 8v3.2h3.2v-3.2h-3.2zM25.6 14.4v3.2h3.2v-3.2h-3.2zM25.6 20.8v3.2h3.2v-3.2h-3.2zM12.8 11.2l8 4.8-8 4.8v-9.6z"></path>
</symbol>
<symbol id="icon-trophy-1" viewBox="0 0 32 32">
<path d="M24 14.4c2.651 0 4.8-2.149 4.8-4.8l3.2 0.002c0 4.418-3.582 8-8 8-0.056 0-0.112-0.001-0.168-0.002l0.008 0c-0.658 3.146-3.094 5.582-6.188 6.231l-0.052 0.009v3.36l8 3.2v1.6h-19.2v-1.6l8-3.2v-3.36c-3.146-0.658-5.582-3.094-6.231-6.188l-0.009-0.052h-0.16c-4.418 0-8-3.582-8-8h3.2c0 2.651 2.149 4.8 4.8 4.8v-8h-4.8v3.2h-3.2v-6.4h8v-3.2h16v3.2h8v6.4h-3.2v-3.2h-4.8v8z"></path>
</symbol>
<symbol id="icon-video-camera-1" viewBox="0 0 32 32">
<path d="M25.6 11.2l6.4-6.4v22.4l-6.4-6.4v4.8c0 1.767-1.433 3.2-3.2 3.2h-19.2c-1.767 0-3.2-1.433-3.2-3.2v-19.2c0-1.76 1.44-3.2 3.2-3.2h19.2c1.767 0 3.2 1.433 3.2 3.2v4.8zM12.8 22.4c3.535 0 6.4-2.865 6.4-6.4s-2.865-6.4-6.4-6.4c-3.535 0-6.4 2.865-6.4 6.4s2.865 6.4 6.4 6.4zM12.8 19.2c-1.767 0-3.2-1.433-3.2-3.2s1.433-3.2 3.2-3.2c1.767 0 3.2 1.433 3.2 3.2s-1.433 3.2-3.2 3.2z"></path>
</symbol>
</defs>
</svg>
